<svg xmlns="http://www.w3.org/2000/svg" xmlns:xlink="http://www.w3.org/1999/xlink" width="432.95029" height="136.0414" viewBox="0 0 432.95029 136.0414"><defs><style>.cls-1{fill:none;}.cls-2{fill:#ff6c0e;}.cls-3{fill:#24619d;}.cls-4{clip-path:url(#clip-path);}</style><clipPath id="clip-path"><rect class="cls-1" x="0.037" width="432.91329" height="136.0403"/></clipPath></defs><title>logo</title><g id="Layer_2" data-name="Layer 2"><g id="Landing_Page"><path class="cls-2" d="M115.6029,112.3402c.8786-4.3527,1.5937-8.6731,2.7925-12.9474H138.844c1.2838,4.1736,1.8625,8.57,2.844,12.9474Z"/><path class="cls-2" d="M118.7725,97.7429c.4925-1.6151.9648-3.191,1.4595-4.7568a46.66255,46.66255,0,0,1,3.1832-8.0888,11.03624,11.03624,0,0,1,4.3807-4.7143,4.12648,4.12648,0,0,1,3.8267,1.7394c2.5015,2.7477,3.7148,6.1267,4.9415,9.4934a24.169,24.169,0,0,1,1.6353,5.857c.0122.131.198.2475.3849.4701Z"/><path class="cls-2" d="M160.863,112.3704H143.4318c-.8596-4.3225-1.7102-8.5891-2.5787-12.9452h13.5664a87.48653,87.48653,0,0,1,6.44349,12.9452"/><path class="cls-2" d="M100.6698,99.405c-2.1333,4.3405-4.2453,8.6429-6.3663,12.9565H79.6794A78.33907,78.33907,0,0,1,89.5512,99.405Z"/><path class="cls-2" d="M133.3037,81.083c1.079-.4904,1.8177.1499,2.5329.4599a29.64406,29.64406,0,0,1,7.0132,4.1346,40.58652,40.58652,0,0,1,5.6164,5.5291c1.4304,1.7034,2.7444,3.4785,4.073,5.2493.282.3749.5092.7889.8182,1.2725H140.43c-.6256-1.8725-1.333-3.7629-1.8781-5.6937a38.27447,38.27447,0,0,0-2.0907-5.6589,26.165,26.165,0,0,0-3.1575-5.2928"/><path class="cls-2" d="M123.9367,80.784c-1.7471,1.9979-2.5899,4.382-3.6554,6.5768a46.71622,46.71622,0,0,0-2.1624,6.1995c-.4343,1.3622-.7712,2.7556-1.1696,4.1972H103.938c.5081-.7924.9782-1.5714,1.5031-2.3157.5305-.7499,1.1451-1.4427,1.6778-2.1915a40.35787,40.35787,0,0,1,5.0792-5.7742,33.48122,33.48122,0,0,1,9.2965-6.0686,13.37661,13.37661,0,0,1,2.4421-.6235"/><path class="cls-2" d="M116.5385,82.0208c-6.3506,4.1413-10.8097,9.5998-14.6443,15.7054H91.3307c.1613-.3257.2172-.6447.4097-.797,2.487-1.9844,4.6461-4.327,7.2885-6.1681,1.8558-1.2939,3.6902-2.6471,5.6143-3.8156a65.43658,65.43658,0,0,1,6.9347-3.3499c1.1933-.5405,2.4355-.9782,3.6723-1.4226a6.75121,6.75121,0,0,1,1.2883-.1522"/><path class="cls-2" d="M77.367,112.3502H68.3906A82.37563,82.37563,0,0,1,80.4897,99.4017h6.3864a43.273,43.273,0,0,1-3.2883,4.2844c-1.0789,1.4786-2.178,2.9415-3.2257,4.4458-1.0095,1.4516-2.0459,2.8865-2.9951,4.2183"/><path class="cls-2" d="M94.4334,87.1269a110.53282,110.53282,0,0,0-14.8626,10.606H74.7636a77.60614,77.60614,0,0,1,19.6698-10.606"/><path class="cls-2" d="M157.0442,99.3501c2.13319,4.3416,4.24629,8.644,6.36629,12.9565h14.6252a78.24746,78.24746,0,0,0-9.873-12.9565Z"/><path class="cls-2" d="M141.1755,81.9672c6.3517,4.1401,10.8119,9.5987,14.6465,15.7041h10.56229c-.1601-.3257-.2172-.6435-.4086-.7969-2.4891-1.9845-4.6471-4.327-7.2885-6.1671-1.85569-1.295-3.69119-2.6492-5.61419-3.8155a64.64386,64.64386,0,0,0-6.9349-3.3477c-1.1931-.5451-2.4376-.9793-3.6733-1.427a6.67433,6.67433,0,0,0-1.2893-.1499"/><polygon class="cls-2" points="102.834 99.408 116.259 99.408 113.953 112.33 96.392 112.33 102.834 99.408"/><path class="cls-2" d="M104.0398,85.2767c-.3525.2094-6.6897.5518-21.6786,12.4662h6.2184Z"/><path class="cls-2" d="M66.6973,99.4262s-7.0066,3.2067-16.3826,12.9308h5.5068s10.1504-10.9754,13.1601-12.6453Z"/><polygon class="cls-2" points="72.16 99.383 58.282 112.386 65.935 112.386 77.512 99.383 72.16 99.383"/><path class="cls-2" d="M81.9246,90.3806s-10.8477,5.4596-13.2508,7.3567h3.0713Z"/><path class="cls-2" d="M180.03129,112.272h8.973a82.48508,82.48508,0,0,0-12.0957-12.9464h-6.3887a43.32341,43.32341,0,0,0,3.2895,4.2834c1.0778,1.4785,2.1769,2.9424,3.2246,4.4456,1.0084,1.4517,2.0459,2.8854,2.9973,4.2174"/><path class="cls-3" d="M162.965,87.0508a110.67886,110.67886,0,0,1,14.8591,10.6038h4.8083A77.60275,77.60275,0,0,0,162.965,87.0508"/><path class="cls-2" d="M153.3551,85.2006c.356.2094,6.6897.5507,21.67979,12.4651h-6.2186Z"/><path class="cls-2" d="M190.7,99.3501s7.0042,3.2067,16.3847,12.9285h-5.5101s-10.1494-10.9742-13.1601-12.643Z"/><polygon class="cls-2" points="185.237 99.307 199.114 112.309 191.463 112.309 179.883 99.307 185.237 99.307"/><g class="cls-4"><path class="cls-3" d="M175.47149,90.3033s10.8488,5.4586,13.2519,7.3579H185.651Z"/><rect class="cls-3" y="124.4952" width="1.652" height="11.3201"/></g><path class="cls-3" d="M4.4367,135.8164V127.478H6.007v1.2861a3.53462,3.53462,0,0,1,1.0868-1.0152,3.54613,3.54613,0,0,1,1.7494-.422,3.454,3.454,0,0,1,1.445.2899,2.5834,2.5834,0,0,1,1.0331.8361,2.729,2.729,0,0,1,.4331.9917,6.80139,6.80139,0,0,1,.159,1.6218v4.75h-1.547v-4.1098a8.09645,8.09645,0,0,0-.1454-1.7908,1.74917,1.74917,0,0,0-.6043-.9425,1.77322,1.77322,0,0,0-1.1461-.3603,2.3724,2.3724,0,0,0-1.276.3716,2.30953,2.30953,0,0,0-.8887.9916,4.50046,4.50046,0,0,0-.2989,1.8748v3.9654Z"/><path class="cls-3" d="M16.876,125.1209v2.3952h2.2453v1.2402H16.876v3.2614a10.2143,10.2143,0,0,0,.0907,1.6722,1.16852,1.16852,0,0,0,.4332.695,1.382,1.382,0,0,0,.8629.2574,2.31073,2.31073,0,0,0,1.0275-.2809v1.3174a4.74346,4.74346,0,0,1-1.4472.2395,3.04506,3.04506,0,0,1-1.22-.2182,1.9738,1.9738,0,0,1-.7946-.5966,2.16222,2.16222,0,0,1-.3941-.9122,10.15227,10.15227,0,0,1-.1029-1.7069v-3.7281H13.394v-1.2402h1.9375v-1.8747Z"/><path class="cls-3" d="M21.8097,132.058a3.88705,3.88705,0,0,0,.3313,1.2625,2.56543,2.56543,0,0,0,.9569,1.0297,2.83431,2.83431,0,0,0,1.4831.3716,5.10243,5.10243,0,0,0,2.6616-.7756v1.4684a6.57937,6.57937,0,0,1-2.6952.5921,4.21725,4.21725,0,0,1-3.126-1.1864,4.96984,4.96984,0,0,1-.065-6.354,3.78364,3.78364,0,0,1,2.8418-1.1561,3.40125,3.40125,0,0,1,2.6661,1.1203,4.86951,4.86951,0,0,1,1.005,3.3477v.2798Zm.0168-1.1819h4.4804a4.897,4.897,0,0,0-.2038-1.0007,2.22427,2.22427,0,0,0-.3894-.6793,2.01425,2.01425,0,0,0-.6604-.5159,1.98774,1.98774,0,0,0-.9021-.2015,2.14235,2.14235,0,0,0-1.5155.6212,2.88856,2.88856,0,0,0-.8092,1.7762"/><path class="cls-3" d="M34.7863,127.478v1.4215a2.17073,2.17073,0,0,0-.8349-.1354,1.9941,1.9941,0,0,0-1.2626.4297,2.34934,2.34934,0,0,0-.7901,1.0768,5.35471,5.35471,0,0,0-.2407,1.7963v3.7484H30.0631V127.478h1.4594v1.4394a3.9056,3.9056,0,0,1,1.1081-1.2088,2.50879,2.50879,0,0,1,1.3543-.3425,2.64222,2.64222,0,0,1,.8014.1119"/><path class="cls-3" d="M36.3734,135.8164V127.478h1.5692v1.2861a3.22942,3.22942,0,0,1,2.8361-1.4372,3.45649,3.45649,0,0,1,1.4449.2899,2.59053,2.59053,0,0,1,1.0332.8361,2.70707,2.70707,0,0,1,.4331.9917,6.802,6.802,0,0,1,.1589,1.6218v4.75H42.3009v-4.1098a8.01358,8.01358,0,0,0-.1466-1.7908,1.75091,1.75091,0,0,0-.601-.9425,1.78488,1.78488,0,0,0-1.1473-.3603,2.36591,2.36591,0,0,0-1.2748.3716,2.314,2.314,0,0,0-.8909.9916,4.52164,4.52164,0,0,0-.2977,1.8748v3.9654Z"/><path class="cls-3" d="M46.9167,128.1261a5.54553,5.54553,0,0,1,2.7937-.7522,4.55227,4.55227,0,0,1,1.399.1937,3.10128,3.10128,0,0,1,.9715.5014,2.387,2.387,0,0,1,.573.6403,2.78411,2.78411,0,0,1,.3471.9904,12.36042,12.36042,0,0,1,.0895,1.7751q0,2.3019.0134,3.0153c.0134.4735.0324.9145.066,1.3263H51.7608a7.5048,7.5048,0,0,1-.0402-.7532c0-.1679.0089-.3962.0246-.6783a3.22157,3.22157,0,0,1-1.1395,1.1495,3.31583,3.31583,0,0,1-1.6799.3917,3.08366,3.08366,0,0,1-2.1669-.7018,2.32507,2.32507,0,0,1-.7633-1.7919,2.18688,2.18688,0,0,1,.8987-1.8367,5.71,5.71,0,0,1,3.4988-.8797c.2798,0,.6749.0112,1.1797.0392a1.85027,1.85027,0,0,0-2.1031-2.1109,4.08214,4.08214,0,0,0-1.3856.2407,4.86439,4.86439,0,0,0-1.0856.5987Zm4.6897,3.764c-.2865-.0257-.5686-.0391-.8485-.0391a4.5791,4.5791,0,0,0-2.4589.4599,1.33275,1.33275,0,0,0-.6525,1.1059,1.17661,1.17661,0,0,0,.4275.92,1.75474,1.75474,0,0,0,1.192.3739,2.539,2.539,0,0,0,1.0823-.2306,2.03111,2.03111,0,0,0,1.1764-1.5032,5.95907,5.95907,0,0,0,.0817-1.0868"/><path class="cls-3" d="M58.0298,125.1209v2.3952h2.2441v1.2402H58.0298v3.2614a9.944,9.944,0,0,0,.0906,1.6722,1.16178,1.16178,0,0,0,.432.695,1.37789,1.37789,0,0,0,.8629.2574,2.31872,2.31872,0,0,0,1.0287-.2809v1.3174a4.75885,4.75885,0,0,1-1.4506.2395,3.04073,3.04073,0,0,1-1.2177-.2182,1.95915,1.95915,0,0,1-.7947-.5966,2.162,2.162,0,0,1-.3939-.9122,10.231,10.231,0,0,1-.1041-1.7069v-3.7281H54.5478v-1.2402H56.483v-1.8747Z"/><path class="cls-3" d="M64.039,126.0129H62.3221v-1.6912H64.039Zm-.0717,9.8024H62.4038v-8.2958h1.5635Z"/><path class="cls-3" d="M74.8352,131.6282a4.18864,4.18864,0,0,1-1.5377,3.4831,4.34283,4.34283,0,0,1-2.7948.9301,4.40194,4.40194,0,0,1-2.1714-.5496,3.92394,3.92394,0,0,1-1.5502-1.558,4.50793,4.50793,0,0,1-.5629-2.235,4.70725,4.70725,0,0,1,.5472-2.2497,3.83059,3.83059,0,0,1,1.5513-1.5883,4.4241,4.4241,0,0,1,2.1938-.5585,4.4849,4.4849,0,0,1,1.8803.3873,4.14322,4.14322,0,0,1,1.4013,1.0151,3.93392,3.93392,0,0,1,.7981,1.4114,5.05833,5.05833,0,0,1,.245,1.5121m-1.6441.047a3.61786,3.61786,0,0,0-.6951-2.1747,2.2906,2.2906,0,0,0-1.9609-.9626,2.45266,2.45266,0,0,0-1.8781.8551,3.2782,3.2782,0,0,0-.779,2.2967,3.24344,3.24344,0,0,0,.7757,2.2901,2.52289,2.52289,0,0,0,3.7651-.0078,3.29555,3.29555,0,0,0,.7723-2.2968"/><path class="cls-3" d="M76.9261,135.8164V127.478h1.5691v1.2861a3.23366,3.23366,0,0,1,2.8373-1.4372,3.468,3.468,0,0,1,1.4449.2899,2.59369,2.59369,0,0,1,1.032.8361,2.74421,2.74421,0,0,1,.4342.9917,6.86093,6.86093,0,0,1,.1579,1.6218v4.75H82.8547v-4.1098a8.01964,8.01964,0,0,0-.1466-1.7908,1.75276,1.75276,0,0,0-.6022-.9425,1.78229,1.78229,0,0,0-1.1472-.3603,2.36624,2.36624,0,0,0-1.2749.3716,2.32838,2.32838,0,0,0-.8908.9916,4.538,4.538,0,0,0-.2978,1.8748v3.9654Z"/><path class="cls-3" d="M87.4715,128.1261a5.53572,5.53572,0,0,1,2.7927-.7522,4.52738,4.52738,0,0,1,1.3967.1937,3.09566,3.09566,0,0,1,.9726.5014,2.36523,2.36523,0,0,1,.572.6403,2.72115,2.72115,0,0,1,.3481.9904,12.55438,12.55438,0,0,1,.0884,1.7751q0,2.3019.0168,3.0153c.0111.4735.0313.9145.0638,1.3263H92.3157a7.1939,7.1939,0,0,1-.0403-.7532c0-.1679.0067-.3962.0246-.6783a3.24509,3.24509,0,0,1-1.1416,1.1495,3.31338,3.31338,0,0,1-1.68.3917,3.077,3.077,0,0,1-2.1657-.7018,2.33416,2.33416,0,0,1-.7656-1.7919,2.18511,2.18511,0,0,1,.8999-1.8367,5.71423,5.71423,0,0,1,3.4988-.8797c.2809,0,.6759.0112,1.1818.0392a1.8526,1.8526,0,0,0-2.1041-2.1109,4.10825,4.10825,0,0,0-1.3878.2407,4.85694,4.85694,0,0,0-1.0835.5987Zm4.6897,3.764c-.2887-.0257-.5708-.0391-.8517-.0391a4.57009,4.57009,0,0,0-2.4568.4599,1.32785,1.32785,0,0,0-.6525,1.1059,1.18041,1.18041,0,0,0,.4275.92,1.75077,1.75077,0,0,0,1.1898.3739,2.52922,2.52922,0,0,0,1.0834-.2306,2.04295,2.04295,0,0,0,1.1776-1.5032,5.936,5.936,0,0,0,.0827-1.0868"/><rect class="cls-3" x="96.5107" y="123.5831" width="1.5624" height="12.2322"/><path class="cls-3" d="M114.5216,124.9452l-.1052,1.5658a5.72761,5.72761,0,0,0-1.1909-.5103,6.30493,6.30493,0,0,0-1.7572-.2485,5.06561,5.06561,0,0,0-2.4041.563,3.97152,3.97152,0,0,0-1.6364,1.5423,4.33178,4.33178,0,0,0-.5663,2.2105,4.65235,4.65235,0,0,0,.5663,2.2978,3.81562,3.81562,0,0,0,1.6845,1.5804,5.30892,5.30892,0,0,0,2.4209.5585,4.7835,4.7835,0,0,0,.7365-.0515,7.43015,7.43015,0,0,0,.826-.1947v-3.2806h-2.4534v-1.3498h4.0975v5.7228a10.66106,10.66106,0,0,1-3.2961.5282,8.275,8.275,0,0,1-2.6616-.4028,5.201,5.201,0,0,1-1.934-1.1238,5.25988,5.25988,0,0,1-1.1685-1.6062,6.332,6.332,0,0,1-.5686-2.7096,5.18479,5.18479,0,0,1,1.9676-4.3014,6.664,6.664,0,0,1,4.2844-1.3531,9.6771,9.6771,0,0,1,1.8871.1869,7.59139,7.59139,0,0,1,1.2715.3761"/><path class="cls-3" d="M122.3541,127.478v1.4215a2.16036,2.16036,0,0,0-.8339-.1354,2.00126,2.00126,0,0,0-1.2636.4297,2.35852,2.35852,0,0,0-.7901,1.0768,5.42224,5.42224,0,0,0-.2385,1.7963v3.7484h-1.596V127.478h1.4584v1.4394a3.89543,3.89543,0,0,1,1.1103-1.2088,2.49805,2.49805,0,0,1,1.3521-.3425,2.64664,2.64664,0,0,1,.8013.1119"/><path class="cls-3" d="M131.6439,131.6282a4.18871,4.18871,0,0,1-1.5378,3.4831,4.34558,4.34558,0,0,1-2.796.9301,4.40156,4.40156,0,0,1-2.1713-.5496,3.93446,3.93446,0,0,1-1.549-1.558,4.50864,4.50864,0,0,1-.5653-2.235,4.70791,4.70791,0,0,1,.5496-2.2497,3.8312,3.8312,0,0,1,1.549-1.5883,4.43837,4.43837,0,0,1,2.196-.5585,4.48817,4.48817,0,0,1,1.8803.3873,4.11148,4.11148,0,0,1,1.3991,1.0151,3.90094,3.90094,0,0,1,.7991,1.4114,5.02348,5.02348,0,0,1,.2463,1.5121m-1.643.047a3.61981,3.61981,0,0,0-.6973-2.1747,2.28675,2.28675,0,0,0-1.961-.9626,2.45561,2.45561,0,0,0-1.878.8551,3.776,3.776,0,0,0-.0035,4.5868,2.48005,2.48005,0,0,0,1.8894.8394,2.45493,2.45493,0,0,0,1.8758-.8472,3.29144,3.29144,0,0,0,.7746-2.2968"/><path class="cls-3" d="M133.6194,127.478h1.539v4.1401a7.52314,7.52314,0,0,0,.1544,1.7908,1.69968,1.69968,0,0,0,.6245.929,1.77464,1.77464,0,0,0,1.108.3593,2.335,2.335,0,0,0,.8631-.1679,2.29336,2.29336,0,0,0,.7621-.4924,2.35561,2.35561,0,0,0,.7253-1.4024,6.42907,6.42907,0,0,0,.0873-1.0164V127.478h1.605v8.3373h-1.605v-1.2479a2.58662,2.58662,0,0,1-1.1416,1.0409,3.83957,3.83957,0,0,1-1.6833.3603,3.2935,3.2935,0,0,1-1.3051-.2473,2.86874,2.86874,0,0,1-.9962-.713,2.46685,2.46685,0,0,1-.4543-.7678,4.30323,4.30323,0,0,1-.2832-1.5501Z"/><path class="cls-3" d="M143.8728,135.8164V127.478h1.5715v1.2861a3.22572,3.22572,0,0,1,2.8361-1.4372,3.45131,3.45131,0,0,1,1.4438.2899,2.5861,2.5861,0,0,1,1.0342.8361,2.72894,2.72894,0,0,1,.4332.9917,6.802,6.802,0,0,1,.1589,1.6218v4.75h-1.5491v-4.1098a8.11714,8.11714,0,0,0-.1443-1.7908,1.75446,1.75446,0,0,0-.6033-.9425,1.78248,1.78248,0,0,0-1.1472-.3603,2.36524,2.36524,0,0,0-1.2737.3716,2.31486,2.31486,0,0,0-.891.9916,4.50377,4.50377,0,0,0-.2976,1.8748v3.9654Z"/><path class="cls-3" d="M161.45729,123.5831v12.2333h-1.4997v-1.3923a3.13887,3.13887,0,0,1-1.0801,1.1114,3.24478,3.24478,0,0,1-1.70579.4007,3.44707,3.44707,0,0,1-2.6482-1.1081,4.39909,4.39909,0,0,1-1.0273-3.1126,4.49958,4.49958,0,0,1,1.0654-3.1776,3.63494,3.63494,0,0,1,4.40989-.6928,2.84615,2.84615,0,0,1,.939.9682v-5.2302Zm-3.88039,5.1171a2.22524,2.22524,0,0,0-1.7159.8003,3.15477,3.15477,0,0,0-.7128,2.1837,3.855,3.855,0,0,0,.3065,1.6285,2.25371,2.25371,0,0,0,.8149.9883,2.13684,2.13684,0,0,0,1.1774.3235,2.3232,2.3232,0,0,0,1.78189-.7981,3.06431,3.06431,0,0,0,.7287-2.1512,3.11434,3.11434,0,0,0-.7242-2.1579,2.16242,2.16242,0,0,0-1.65649-.8171"/><polygon class="cls-3" points="176.45 127.516 173.75 135.815 171.953 135.815 169.727 128.837 167.572 135.815 165.799 135.815 163.019 127.516 164.72 127.516 166.747 134.402 168.877 127.516 170.689 127.516 172.877 134.433 174.887 127.516 176.45 127.516"/><path class="cls-3" d="M178.41729,128.1261a5.53824,5.53824,0,0,1,2.79251-.7522,4.5657,4.5657,0,0,1,1.40019.1937,3.12875,3.12875,0,0,1,.9716.5014,2.398,2.398,0,0,1,.5707.6403,2.69767,2.69767,0,0,1,.347.9904,12.16373,12.16373,0,0,1,.0896,1.7751q0,2.3019.0134,3.0153c.0134.4735.0324.9145.0672,1.3263h-1.408a7.23858,7.23858,0,0,1-.0425-.7532c0-.1679.0089-.3962.02681-.6783a3.23368,3.23368,0,0,1-1.14051,1.1495,3.31957,3.31957,0,0,1-1.68.3917,3.08167,3.08167,0,0,1-2.1669-.7018,2.32573,2.32573,0,0,1-.7645-1.7919,2.18982,2.18982,0,0,1,.8988-1.8367,5.71445,5.71445,0,0,1,3.4988-.8797c.2809,0,.676.0112,1.1819.0392a1.8518,1.8518,0,0,0-2.1053-2.1109,4.08214,4.08214,0,0,0-1.3856.2407,4.88827,4.88827,0,0,0-1.0846.5987Zm4.68851,3.764c-.28651-.0257-.56861-.0391-.84951-.0391a4.574,4.574,0,0,0-2.4578.4599,1.33286,1.33286,0,0,0-.6526,1.1059,1.18105,1.18105,0,0,0,.4288.92,1.74722,1.74722,0,0,0,1.1908.3739,2.527,2.527,0,0,0,1.0812-.2306,2.04447,2.04447,0,0,0,.7946-.6279,2.08308,2.08308,0,0,0,.3851-.8753,6.119,6.119,0,0,0,.07941-1.0868"/><path class="cls-3" d="M189.52919,125.1209v2.3952h2.2441v1.2402h-2.2441v3.2614a10.326,10.326,0,0,0,.0873,1.6722,1.16651,1.16651,0,0,0,.4355.695,1.37769,1.37769,0,0,0,.8629.2574,2.31374,2.31374,0,0,0,1.0274-.2809v1.3174a4.75823,4.75823,0,0,1-1.45049.2395,3.032,3.032,0,0,1-1.21671-.2182,1.97009,1.97009,0,0,1-.7957-.5966,2.145,2.145,0,0,1-.3918-.9122,9.97819,9.97819,0,0,1-.1052-1.7069v-3.7281h-1.9362v-1.2402h1.9362v-1.8747Z"/><path class="cls-3" d="M194.46289,132.058a3.83705,3.83705,0,0,0,.329,1.2625,2.57966,2.57966,0,0,0,.95591,1.0297,2.84622,2.84622,0,0,0,1.48409.3716,5.11859,5.11859,0,0,0,2.6638-.7756v1.4684a6.60347,6.60347,0,0,1-2.6963.5921,4.212,4.212,0,0,1-3.126-1.1864,4.96618,4.96618,0,0,1-.065-6.354,3.77958,3.77958,0,0,1,2.843-1.1561,3.3948,3.3948,0,0,1,2.6638,1.1203,4.86959,4.86959,0,0,1,1.0061,3.3477v.2798Zm.0134-1.1819h4.48151a4.75074,4.75074,0,0,0-.20481-1.0007,2.1555,2.1555,0,0,0-.3884-.6793,2.07429,2.07429,0,0,0-.6604-.5159,1.98415,1.98415,0,0,0-.9021-.2015,2.13235,2.13235,0,0,0-1.5144.6212,2.89668,2.89668,0,0,0-.8114,1.7762"/><path class="cls-3" d="M207.43719,127.478v1.4215a2.17773,2.17773,0,0,0-.8349-.1354,1.99886,1.99886,0,0,0-1.2636.4297,2.36357,2.36357,0,0,0-.7891,1.0768,5.41452,5.41452,0,0,0-.2407,1.7963v3.7484h-1.5938V127.478h1.4584v1.4394a3.93307,3.93307,0,0,1,1.1069-1.2088,2.51013,2.51013,0,0,1,1.35541-.3425,2.6524,2.6524,0,0,1,.80139.1119"/><path class="cls-3" d="M213.81029,124.4952h2.769a13.60527,13.60527,0,0,1,1.699.0818,3.92782,3.92782,0,0,1,1.4573.4711,2.61305,2.61305,0,0,1,.96921,1.0085,2.83812,2.83812,0,0,1,.36939,1.4214,2.674,2.674,0,0,1-.2216,1.1036,2.557,2.557,0,0,1-.55079.8114,2.411,2.411,0,0,1-.70061.4791,4.11188,4.11188,0,0,1-.9625.2597,2.68422,2.68422,0,0,1,.8103.5484,3.95651,3.95651,0,0,1,.6133,1.0095l1.93751,4.1267h-1.87251l-1.4886-3.389a3.41037,3.41037,0,0,0-.8663-1.3678,2.43012,2.43012,0,0,0-1.37-.2887h-.9491v5.0455h-1.643Zm1.643,1.3923v3.4843h1.0208a5.80559,5.80559,0,0,0,1.7739-.1958,1.68873,1.68873,0,0,0,.8406-.6134,1.613,1.613,0,0,0,.2933-.9491,1.642,1.642,0,0,0-.281-.9402,1.57877,1.57877,0,0,0-.8048-.5921,5.15392,5.15392,0,0,0-1.6586-.1937Z"/><path class="cls-3" d="M224.54149,132.058a3.94349,3.94349,0,0,0,.3314,1.2625,2.56873,2.56873,0,0,0,.958,1.0297,2.8299,2.8299,0,0,0,1.48191.3716,5.11255,5.11255,0,0,0,2.66279-.7756v1.4684a6.59616,6.59616,0,0,1-2.6963.5921,4.22355,4.22355,0,0,1-3.12949-1.1864,4.96974,4.96974,0,0,1-.06261-6.354,3.78408,3.78408,0,0,1,2.8451-1.1561,3.398,3.398,0,0,1,2.6638,1.1203,4.8696,4.8696,0,0,1,1.0062,3.3477v.2798Zm.0169-1.1819h4.48041a4.73513,4.73513,0,0,0-.206-1.0007,2.19348,2.19348,0,0,0-.38731-.6793,2.0492,2.0492,0,0,0-.6604-.5159,1.99071,1.99071,0,0,0-.9021-.2015,2.132,2.132,0,0,0-1.5143.6212,2.88394,2.88394,0,0,0-.8103,1.7762"/><path class="cls-3" d="M236.79619,127.7254l-.1219,1.2949a3.8622,3.8622,0,0,0-1.7103-.4063,1.636,1.636,0,0,0-1.06319.2989.916.916,0,0,0-.36051.7241.88017.88017,0,0,0,.1276.4578,1.176,1.176,0,0,0,.3896.3762c.2551.1578.4756.282.6637.3737l.6491.2944a5.65993,5.65993,0,0,1,1.0689.6089,2.2436,2.2436,0,0,1,.5775.704,2.019,2.019,0,0,1,.2328.9984,2.32438,2.32438,0,0,1-.8103,1.7974,3.28538,3.28538,0,0,1-2.2743.7299,5.30734,5.30734,0,0,1-1.145-.1165,5.22,5.22,0,0,1-1.0432-.3637l.0672-1.3756a5.83973,5.83973,0,0,0,1.0521.4432,3.15361,3.15361,0,0,0,.88981.1343,1.81933,1.81933,0,0,0,1.17739-.3358.96108.96108,0,0,0,.4097-.7622.93.93,0,0,0-.1208-.4756,1.14866,1.14866,0,0,0-.3459-.3638,4.25118,4.25118,0,0,0-.6212-.3346l-.6447-.3358c-.43649-.2261-.7297-.3873-.87749-.4881a2.86474,2.86474,0,0,1-.61221-.5282,1.795,1.795,0,0,1-.3279-.5865,2.11846,2.11846,0,0,1-.113-.7085,2.20281,2.20281,0,0,1,.7643-1.7135,3.11761,3.11761,0,0,1,2.1625-.6828,6.28614,6.28614,0,0,1,1.9597.3414"/><path class="cls-3" d="M247.137,131.6282a4.18261,4.18261,0,0,1-1.5378,3.4831,4.34032,4.34032,0,0,1-2.7948.9301,4.38607,4.38607,0,0,1-2.168-.5496,3.93565,3.93565,0,0,1-1.5524-1.558,4.52128,4.52128,0,0,1-.56519-2.235,4.73275,4.73275,0,0,1,.54729-2.2497,3.85967,3.85967,0,0,1,1.5524-1.5883,4.43543,4.43543,0,0,1,2.1937-.5585,4.48933,4.48933,0,0,1,1.8814.3873,4.12111,4.12111,0,0,1,1.4014,1.0151,3.86929,3.86929,0,0,1,.798,1.4114,5.13015,5.13015,0,0,1,.244,1.5121m-1.6409.047a3.6334,3.6334,0,0,0-.6961-2.1747,2.2906,2.2906,0,0,0-1.9609-.9626,2.45327,2.45327,0,0,0-1.87929.8551,3.76794,3.76794,0,0,0-.00331,4.5868,2.523,2.523,0,0,0,3.7652-.0078,3.29182,3.29182,0,0,0,.7744-2.2968"/><path class="cls-3" d="M249.1158,127.478h1.53779v4.1401a7.41135,7.41135,0,0,0,.1545,1.7908,1.702,1.702,0,0,0,.6224.929,1.78321,1.78321,0,0,0,1.1102.3593,2.35629,2.35629,0,0,0,1.6252-.6603,2.58124,2.58124,0,0,0,.5305-.7321,2.6101,2.6101,0,0,0,.1947-.6703,6.40953,6.40953,0,0,0,.0862-1.0164V127.478h1.6062v8.3373h-1.6062v-1.2479a2.58665,2.58665,0,0,1-1.1393,1.0409,3.85157,3.85157,0,0,1-1.6867.3603,3.28964,3.28964,0,0,1-1.3028-.2473,2.85677,2.85677,0,0,1-.9962-.713,2.49494,2.49494,0,0,1-.4566-.7678,4.32416,4.32416,0,0,1-.27989-1.5501Z"/><path class="cls-3" d="M264.2458,127.478v1.4215a2.182,2.182,0,0,0-.83491-.1354,2.00239,2.00239,0,0,0-1.2648.4297,2.36727,2.36727,0,0,0-.7902,1.0768,5.4804,5.4804,0,0,0-.2394,1.7963v3.7484h-1.5951V127.478h1.4596v1.4394a3.92034,3.92034,0,0,1,1.1092-1.2088,2.50078,2.50078,0,0,1,1.352-.3425,2.66748,2.66748,0,0,1,.80361.1119"/><path class="cls-3" d="M270.95129,127.7657l-.0896,1.3588a3.18978,3.18978,0,0,0-1.539-.3672,2.74289,2.74289,0,0,0-2.84389,2.8709,2.95321,2.95321,0,0,0,.79569,2.1569,2.68023,2.68023,0,0,0,2.008.8159,3.07621,3.07621,0,0,0,.8998-.1209,4.02893,4.02893,0,0,0,.8507-.3749l.1354,1.399a4.77088,4.77088,0,0,1-2.0728.432,4.02569,4.02569,0,0,1-4.26779-4.252,4.39679,4.39679,0,0,1,.55069-2.2285,3.84868,3.84868,0,0,1,1.55131-1.4897,4.42962,4.42962,0,0,1,2.11649-.535,5.47841,5.47841,0,0,1,1.905.3347"/><path class="cls-3" d="M273.98659,132.058a3.827,3.827,0,0,0,.3325,1.2625,2.586,2.586,0,0,0,.9559,1.0297,2.83753,2.83753,0,0,0,1.4841.3716,5.11112,5.11112,0,0,0,2.6616-.7756v1.4684a6.5931,6.5931,0,0,1-2.693.5921,4.21633,4.21633,0,0,1-3.1294-1.1864,4.97188,4.97188,0,0,1-.066-6.354,3.78519,3.78519,0,0,1,2.8418-1.1561,3.40509,3.40509,0,0,1,2.6694,1.1203,4.8748,4.8748,0,0,1,1.0017,3.3477v.2798Zm.0169-1.1819h4.4814a4.89112,4.89112,0,0,0-.2037-1.0007,2.22135,2.22135,0,0,0-.38839-.6793,2.07162,2.07162,0,0,0-.66261-.5159,1.999,1.999,0,0,0-.9032-.2015,2.14212,2.14212,0,0,0-1.5154.6212,2.90031,2.90031,0,0,0-.8081,1.7762"/><path class="cls-3" d="M286.24129,127.7254l-.1219,1.2949a3.85436,3.85436,0,0,0-1.7091-.4063,1.63517,1.63517,0,0,0-1.0644.2989.909.909,0,0,0-.3572.7241.84959.84959,0,0,0,.1277.4578,1.18861,1.18861,0,0,0,.3873.3762,7.47035,7.47035,0,0,0,.6647.3737l.647.2944a5.70051,5.70051,0,0,1,1.0722.6089,2.27115,2.27115,0,0,1,.5775.704,2.06567,2.06567,0,0,1,.2285.9984,2.32723,2.32723,0,0,1-.806,1.7974,3.29251,3.29251,0,0,1-2.2777.7299,5.3145,5.3145,0,0,1-1.1449-.1165,5.173,5.173,0,0,1-1.0409-.3637l.0638-1.3756a5.81391,5.81391,0,0,0,1.0532.4432,3.16424,3.16424,0,0,0,.8931.1343,1.80714,1.80714,0,0,0,1.1741-.3358.95976.95976,0,0,0,.4086-.7622.94975.94975,0,0,0-.1186-.4756,1.11646,1.11646,0,0,0-.3504-.3638,4.06239,4.06239,0,0,0-.6144-.3346l-.6493-.3358c-.4331-.2261-.7252-.3873-.873-.4881a2.78884,2.78884,0,0,1-.6156-.5282,1.79361,1.79361,0,0,1-.3267-.5865,2.11876,2.11876,0,0,1-.112-.7085,2.2055,2.2055,0,0,1,.7633-1.7135,3.11272,3.11272,0,0,1,2.1614-.6828,6.2808,6.2808,0,0,1,1.9597.3414"/><path class="cls-3" d="M297.38789,124.4974l4.9807,11.319H300.5308l-1.21551-2.863H293.7358l-1.18411,2.863h-1.764l4.89-11.319Zm1.3588,7.1375-2.25189-5.7552-2.23521,5.7552Z"/><path class="cls-3" d="M308.04429,127.7254l-.1232,1.2949a3.84617,3.84617,0,0,0-1.7056-.4063,1.62971,1.62971,0,0,0-1.0645.2989.9138.9138,0,0,0-.3615.7241.87133.87133,0,0,0,.1299.4578,1.21244,1.21244,0,0,0,.3872.3762,7.45644,7.45644,0,0,0,.6649.3737l.6469.2944a5.60115,5.60115,0,0,1,1.07.6089,2.20139,2.20139,0,0,1,.5786.704,2.03068,2.03068,0,0,1,.2317.9984,2.32075,2.32075,0,0,1-.8103,1.7974,3.27993,3.27993,0,0,1-2.27659.7299,4.82955,4.82955,0,0,1-2.18811-.4802l.0672-1.3756a5.949,5.949,0,0,0,1.0531.4432,3.15533,3.15533,0,0,0,.891.1343,1.82039,1.82039,0,0,0,1.1785-.3358.96625.96625,0,0,0,.4086-.7622.94083.94083,0,0,0-.122-.4756,1.10457,1.10457,0,0,0-.3469-.3638,3.95629,3.95629,0,0,0-.6191-.3346l-.6447-.3358a9.18241,9.18241,0,0,1-.8729-.4881,2.8894,2.8894,0,0,1-.6189-.5282,1.88141,1.88141,0,0,1-.3281-.5865,2.23934,2.23934,0,0,1-.1096-.7085,2.19653,2.19653,0,0,1,.7656-1.7135,3.11072,3.11072,0,0,1,2.1601-.6828,6.2744,6.2744,0,0,1,1.9587.3414"/><path class="cls-3" d="M314.49339,127.7254l-.1242,1.2949a3.84331,3.84331,0,0,0-1.7091-.4063,1.626,1.626,0,0,0-1.06329.2989.91261.91261,0,0,0-.36041.7241.87923.87923,0,0,0,.1276.4578,1.21964,1.21964,0,0,0,.3917.3762,7.1715,7.1715,0,0,0,.6637.3737l.6458.2944a5.73807,5.73807,0,0,1,1.0723.6089,2.26045,2.26045,0,0,1,.5776.704,2.0681,2.0681,0,0,1,.2294.9984,2.3249,2.3249,0,0,1-.807,1.7974,3.28936,3.28936,0,0,1-2.2766.7299,5.37039,5.37039,0,0,1-1.1483-.1165,5.18688,5.18688,0,0,1-1.0397-.3637l.0637-1.3756a5.88885,5.88885,0,0,0,1.0543.4432,3.16438,3.16438,0,0,0,.8932.1343,1.81252,1.81252,0,0,0,1.1752-.3358.96313.96313,0,0,0,.4086-.7622.95237.95237,0,0,0-.12209-.4756,1.07428,1.07428,0,0,0-.34811-.3638,4.08045,4.08045,0,0,0-.6133-.3346l-.6503-.3358a9.6513,9.6513,0,0,1-.873-.4881,2.80676,2.80676,0,0,1-.6155-.5282,1.90672,1.90672,0,0,1-.3292-.5865,2.23983,2.23983,0,0,1-.1085-.7085,2.19965,2.19965,0,0,1,.7611-1.7135,3.122,3.122,0,0,1,2.1635-.6828,6.3156,6.3156,0,0,1,1.9609.3414"/><path class="cls-3" d="M317.90039,132.058a3.91518,3.91518,0,0,0,.3313,1.2625,2.56136,2.56136,0,0,0,.95811,1.0297,2.83612,2.83612,0,0,0,1.48529.3716,5.12376,5.12376,0,0,0,2.6626-.7756v1.4684a6.61083,6.61083,0,0,1-2.6997.5921,4.21186,4.21186,0,0,1-3.1237-1.1864,4.95711,4.95711,0,0,1-.0661-6.354,3.78185,3.78185,0,0,1,2.8441-1.1561,3.39356,3.39356,0,0,1,2.6626,1.1203,4.87514,4.87514,0,0,1,1.0063,3.3477v.2798Zm.0202-1.1819h4.477a4.814,4.814,0,0,0-.2049-1.0007,2.1307,2.1307,0,0,0-.3884-.6793,2.03242,2.03242,0,0,0-.6592-.5159,1.98774,1.98774,0,0,0-.9021-.2015,2.14113,2.14113,0,0,0-1.5166.6212,2.87423,2.87423,0,0,0-.8058,1.7762"/><path class="cls-3" d="M330.15619,127.7254l-.1231,1.2949a3.8483,3.8483,0,0,0-1.7068-.4063,1.64009,1.64009,0,0,0-1.0667.2989.92789.92789,0,0,0-.3593.7241.88945.88945,0,0,0,.12651.4578,1.20892,1.20892,0,0,0,.38949.3762,7.47042,7.47042,0,0,0,.6648.3737l.6492.2944a5.57207,5.57207,0,0,1,1.0677.6089,2.18292,2.18292,0,0,1,.5775.704,1.99508,1.99508,0,0,1,.2351.9984,2.31509,2.31509,0,0,1-.8126,1.7974,3.27738,3.27738,0,0,1-2.27419.7299,5.378,5.378,0,0,1-1.14611-.1165,5.22253,5.22253,0,0,1-1.04089-.3637l.066-1.3756a5.91175,5.91175,0,0,0,1.05309.4432,3.14033,3.14033,0,0,0,.8887.1343,1.82785,1.82785,0,0,0,1.1809-.3358.9726.9726,0,0,0,.4084-.7622.94086.94086,0,0,0-.1219-.4756,1.14219,1.14219,0,0,0-.3481-.3638,3.91794,3.91794,0,0,0-.6178-.3346l-.6447-.3358a9.92571,9.92571,0,0,1-.8775-.4881,2.9419,2.9419,0,0,1-.6145-.5282,1.79514,1.79514,0,0,1-.3279-.5865,2.30157,2.30157,0,0,1,.6526-2.422,3.1197,3.1197,0,0,1,2.1634-.6828,6.29141,6.29141,0,0,1,1.9587.3414"/><path class="cls-3" d="M336.60089,127.7254l-.1198,1.2949a3.86071,3.86071,0,0,0-1.7091-.4063,1.6262,1.6262,0,0,0-1.0634.2989.91281.91281,0,0,0-.3603.7241.88017.88017,0,0,0,.1276.4578,1.22855,1.22855,0,0,0,.3884.3762,7.15336,7.15336,0,0,0,.6682.3737l.6424.2944a5.54069,5.54069,0,0,1,1.0711.6089,2.26508,2.26508,0,0,1,.5809.704,2.06679,2.06679,0,0,1,.2284.9984,2.32312,2.32312,0,0,1-.8093,1.7974,3.27875,3.27875,0,0,1-2.2754.7299,4.82993,4.82993,0,0,1-2.1893-.4802l.0672-1.3756a5.90926,5.90926,0,0,0,1.0521.4432,3.15646,3.15646,0,0,0,.8921.1343,1.81646,1.81646,0,0,0,1.1785-.3358.963.963,0,0,0,.4085-.7622.9522.9522,0,0,0-.122-.4756,1.11959,1.11959,0,0,0-.348-.3638,4.0704,4.0704,0,0,0-.6145-.3346l-.6481-.3358a9.09338,9.09338,0,0,1-.8741-.4881,2.88049,2.88049,0,0,1-.6178-.5282,1.95246,1.95246,0,0,1-.329-.5865,2.23692,2.23692,0,0,1-.1075-.7085,2.19446,2.19446,0,0,1,.7633-1.7135,3.11586,3.11586,0,0,1,2.1613-.6828,6.26888,6.26888,0,0,1,1.9576.3414"/><path class="cls-3" d="M340.35369,127.478v1.3274a2.76273,2.76273,0,0,1,1.1517-1.1001,3.349,3.349,0,0,1,1.5513-.3784,2.66174,2.66174,0,0,1,1.5076.4265,2.40712,2.40712,0,0,1,.93,1.2043,2.99844,2.99844,0,0,1,1.1574-1.2334,3.326,3.326,0,0,1,1.6397-.3974,2.85942,2.85942,0,0,1,1.25241.2631,2.41828,2.41828,0,0,1,.88539.7085,2.84667,2.84667,0,0,1,.4913,1.1696,5.9194,5.9194,0,0,1,.1052,1.2469v5.1003h-1.5535V130.715a2.35164,2.35164,0,0,0-.4298-1.5738,1.45375,1.45375,0,0,0-1.1495-.488,1.81677,1.81677,0,0,0-.9256.244,2.0797,2.0797,0,0,0-.7118.6717,2.55125,2.55125,0,0,0-.3784,1.0184,7.20064,7.20064,0,0,0-.1052,1.2468v3.9812h-1.5803V130.988a5.05181,5.05181,0,0,0-.1433-1.4572,1.24482,1.24482,0,0,0-.4947-.6604,1.463,1.463,0,0,0-.8439-.2407,1.9168,1.9168,0,0,0-1.0823.3459,2.42484,2.42484,0,0,0-.8249,1.0241,4.70753,4.70753,0,0,0-.3112,1.924v3.8916h-1.5982V127.478Z"/><path class="cls-3" d="M354.75289,132.058a3.944,3.944,0,0,0,.3312,1.2625,2.60273,2.60273,0,0,0,.9558,1.0297,2.83827,2.83827,0,0,0,1.482.3716,5.113,5.113,0,0,0,2.6638-.7756v1.4684a6.58439,6.58439,0,0,1-2.693.5921,4.22335,4.22335,0,0,1-3.1294-1.1864,4.97367,4.97367,0,0,1-.0649-6.354,3.78615,3.78615,0,0,1,2.843-1.1561,3.396,3.396,0,0,1,2.6659,1.1203,4.869,4.869,0,0,1,1.0052,3.3477v.2798Zm.0178-1.1819H359.25a5.05923,5.05923,0,0,0-.2037-1.0007,2.22284,2.22284,0,0,0-.3896-.6793,2.08021,2.08021,0,0,0-.6592-.5159,1.991,1.991,0,0,0-.9021-.2015,2.13283,2.13283,0,0,0-1.5155.6212,2.859,2.859,0,0,0-.8092,1.7762"/><path class="cls-3" d="M362.85289,135.8164V127.478h1.5703v1.2861a3.226,3.226,0,0,1,2.8373-1.4372,3.45473,3.45473,0,0,1,1.4437.2899,2.58641,2.58641,0,0,1,1.0343.8361,2.7493,2.7493,0,0,1,.4331.9917,6.9985,6.9985,0,0,1,.1567,1.6218v4.75h-1.549v-4.1098a8.13038,8.13038,0,0,0-.1433-1.7908,1.75616,1.75616,0,0,0-.6044-.9425,1.77513,1.77513,0,0,0-1.1461-.3603,2.43432,2.43432,0,0,0-2.1669,1.3632,4.56629,4.56629,0,0,0-.2954,1.8748v3.9654Z"/><path class="cls-3" d="M375.29439,125.1209v2.3952h2.2441v1.2402h-2.2441v3.2614a10.18421,10.18421,0,0,0,.0873,1.6722,1.15934,1.15934,0,0,0,.4343.695,1.38481,1.38481,0,0,0,.8652.2574,2.30935,2.30935,0,0,0,1.0252-.2809v1.3174a4.75771,4.75771,0,0,1-1.4505.2395,3.03388,3.03388,0,0,1-1.2178-.2182,1.98941,1.98941,0,0,1-.7969-.5966,2.21633,2.21633,0,0,1-.3906-.9122,9.86768,9.86768,0,0,1-.1042-1.7069v-3.7281h-1.9373v-1.2402h1.9373v-1.8747Z"/><path class="cls-3" d="M392.28569,124.9116l-.1388,1.5356a5.953,5.953,0,0,0-1.1797-.4869,4.5963,4.5963,0,0,0-1.2255-.1522,4.68314,4.68314,0,0,0-2.2352.544,3.7788,3.7788,0,0,0-1.5702,1.5132,4.76525,4.76525,0,0,0,.0077,4.4367,4.099,4.099,0,0,0,1.5816,1.5592,4.65356,4.65356,0,0,0,2.347.5876,5.76461,5.76461,0,0,0,1.1294-.1109,8.06346,8.06346,0,0,0,1.2837-.3917l.113,1.5647a6.75458,6.75458,0,0,1-1.0957.2809,9.12283,9.12283,0,0,1-1.4449.1052,7.1685,7.1685,0,0,1-3.2917-.6882,5.14727,5.14727,0,0,1-2.1322-2.0416,5.98789,5.98789,0,0,1-.7925-3.0835,5.62782,5.62782,0,0,1,.7713-2.9616,5.27948,5.27948,0,0,1,2.1579-1.999,6.74039,6.74039,0,0,1,3.1294-.7163,7.19168,7.19168,0,0,1,1.54.1545,5.3556,5.3556,0,0,1,1.0454.3503"/><path class="cls-3" d="M394.97409,132.058a3.85912,3.85912,0,0,0,.3314,1.2625,2.56213,2.56213,0,0,0,.9558,1.0297,2.832,2.832,0,0,0,1.4818.3716,5.1002,5.1002,0,0,0,2.6628-.7756v1.4684a6.57778,6.57778,0,0,1-2.694.5921,4.21632,4.21632,0,0,1-3.1272-1.1864,4.97384,4.97384,0,0,1-.065-6.354,3.78126,3.78126,0,0,1,2.8408-1.1561,3.40084,3.40084,0,0,1,2.6682,1.1203,4.869,4.869,0,0,1,1.005,3.3477v.2798Zm.01571-1.1819h4.48149a5.03013,5.03013,0,0,0-.2059-1.0007,2.131,2.131,0,0,0-.3873-.6793,2.03813,2.03813,0,0,0-.66029-.5159,1.99485,1.99485,0,0,0-.90221-.2015,2.13212,2.13212,0,0,0-1.5143.6212,2.87238,2.87238,0,0,0-.81149,1.7762"/><path class="cls-3" d="M403.07649,135.8164V127.478h1.5668v1.2861a3.234,3.234,0,0,1,2.8373-1.4372,3.46256,3.46256,0,0,1,1.4439.2899,2.60085,2.60085,0,0,1,1.0341.8361,2.68722,2.68722,0,0,1,.4321.9917,6.84471,6.84471,0,0,1,.1612,1.6218v4.75h-1.549v-4.1098a8.0123,8.0123,0,0,0-.1467-1.7908,1.75218,1.75218,0,0,0-.6022-.9425,1.78143,1.78143,0,0,0-1.1461-.3603,2.36045,2.36045,0,0,0-1.2748.3716,2.32822,2.32822,0,0,0-.8932.9916,4.56294,4.56294,0,0,0-.2966,1.8748v3.9654Z"/><path class="cls-3" d="M415.51459,125.1209v2.3952h2.243v1.2402h-2.243v3.2614a10.1292,10.1292,0,0,0,.0895,1.6722,1.15523,1.15523,0,0,0,.4343.695,1.37688,1.37688,0,0,0,.8619.2574,2.295,2.295,0,0,0,1.0263-.2809v1.3174a4.73521,4.73521,0,0,1-1.4495.2395,3.022,3.022,0,0,1-1.2154-.2182,1.98427,1.98427,0,0,1-.798-.5966,2.20533,2.20533,0,0,1-.3951-.9122,10.42306,10.42306,0,0,1-.1019-1.7069v-3.7281h-1.9362v-1.2402h1.9362v-1.8747Z"/><path class="cls-3" d="M424.53909,127.478v1.4215a2.19632,2.19632,0,0,0-.8361-.1354,2.01486,2.01486,0,0,0-1.2669.4297,2.36834,2.36834,0,0,0-.7869,1.0768,5.42792,5.42792,0,0,0-.23839,1.7963v3.7484h-1.59611V127.478h1.4563v1.4394a3.93664,3.93664,0,0,1,1.1114-1.2088,2.49642,2.49642,0,0,1,1.3531-.3425,2.66736,2.66736,0,0,1,.8036.1119"/><path class="cls-3" d="M426.89519,132.058a3.75263,3.75263,0,0,0,.3312,1.2625,2.54121,2.54121,0,0,0,.9559,1.0297,2.82439,2.82439,0,0,0,1.4819.3716,5.11431,5.11431,0,0,0,2.66261-.7756v1.4684a6.57862,6.57862,0,0,1-2.69511.5921,4.21594,4.21594,0,0,1-3.1261-1.1864,4.97008,4.97008,0,0,1-.0671-6.354,3.78426,3.78426,0,0,1,2.8429-1.1561,3.39467,3.39467,0,0,1,2.6638,1.1203,4.86349,4.86349,0,0,1,1.0051,3.3477v.2798Zm.0134-1.1819h4.4815a4.59523,4.59523,0,0,0-.2049-1.0007,2.19314,2.19314,0,0,0-.3872-.6793,2.01091,2.01091,0,0,0-.6626-.5159,1.98858,1.98858,0,0,0-.8999-.2015,2.13195,2.13195,0,0,0-1.5143.6212,2.891,2.891,0,0,0-.8126,1.7762"/><path class="cls-3" d="M210.56549,21.0352c-.225,3.4395-.45,7.988-.45,16.0881V67.4124c0,10.4291-2.1365,18.9713-8.3215,24.4109-6.0664,5.1037-14.2727,6.6561-22.36819,6.6561-7.19351,0-14.83791-1.4427-19.785-4.214l3.37339-12.7616A34.13248,34.13248,0,0,0,178.977,85.608c8.0944,0,14.2759-4.3259,14.2759-14.3095V67.7459h-.2249c-3.2593,4.5475-8.5421,7.1028-14.839,7.1028-13.6011,0-23.26929-10.8747-23.26929-26.5195,0-17.4189,11.46569-28.514,24.95489-28.514,7.5348,0,12.2535,3.2168,15.0629,7.6556h.22831l.56179-6.4356ZM193.028,43.1135a13.2412,13.2412,0,0,0-.3357-3.1071c-1.238-4.4367-4.4983-7.4307-9.2204-7.4307-6.1817,0-11.2396,5.5471-11.2396,15.4211,0,8.0989,4.045,14.4226,11.2396,14.4226a9.258,9.258,0,0,0,8.9942-6.8766,14.16793,14.16793,0,0,0,.5619-4.4412Z"/><path class="cls-3" d="M223.832,38.8995c0-7.988-.2217-13.2038-.4511-17.8632h14.7305l.5573,9.9849h.45c2.8115-7.8774,9.5562-11.206,14.8424-11.206a17.87514,17.87514,0,0,1,3.5961.2216V35.9032a24.86458,24.86458,0,0,0-4.6091-.4432c-6.2958,0-10.5668,3.3287-11.6917,8.5422a19.35175,19.35175,0,0,0-.338,3.7729V75.2908H223.832Z"/><path class="cls-3" d="M296.56969,75.2908l-1.0151-5.4373h-.3391c-3.5973,4.3293-9.2159,6.6573-15.7333,6.6573-11.132,0-17.7637-7.9881-17.7637-16.6421,0-14.0914,12.8155-20.8595,32.259-20.7465v-.7789c0-2.8844-1.5691-6.9909-10.0038-6.9909a31.21635,31.21635,0,0,0-15.1736,4.1065l-3.1485-10.8745c3.82121-2.1065,11.3559-4.7692,21.3586-4.7692,18.3255,0,24.1703,10.6508,24.1703,23.4102V62.0881a83.17641,83.17641,0,0,0,.7846,13.2027Zm-2.028-25.6296c-8.9921-.1109-15.9583,1.9966-15.9583,8.5442,0,4.3271,2.9168,6.4346,6.7401,6.4346a9.3269,9.3269,0,0,0,8.8824-6.2129,11.84076,11.84076,0,0,0,.3358-2.8855Z"/><path class="cls-3" d="M365.93189,73.96c-3.0376,1.3319-8.7705,2.4411-15.289,2.4411-17.7658,0-29.1206-10.653-29.1206-27.7395,0-15.8654,11.0202-28.8464,31.48-28.8464a40.15691,40.15691,0,0,1,13.04151,2.1075l-2.69961,12.539a23.63,23.63,0,0,0-9.5561-1.6655c-8.9921,0-14.8391,6.326-14.72829,15.1994,0,9.9883,6.74689,15.2029,15.06619,15.2029a26.62932,26.62932,0,0,0,9.78-1.6666Z"/><path class="cls-3" d="M135.3207,27.2358a14.4951,14.4951,0,0,1-8.729-2.8116V75.2919H143.79V24.6123a14.53487,14.53487,0,0,1-8.4693,2.6235"/><path class="cls-3" d="M146.2881,10.953a11.09825,11.09825,0,0,1-22.1946,0,11.09825,11.09825,0,0,1,22.1946,0"/><path class="cls-2" d="M366.0438,48.1624a10.59463,10.59463,0,1,1-10.59711-10.4548A10.52713,10.52713,0,0,1,366.0438,48.1624"/><polygon class="cls-2" points="381.098 99.441 207.24 99.441 207.24 97.44 379.155 97.44 379.155 48.796 363.512 48.796 363.512 46.794 381.098 46.794 381.098 99.441"/></g></g></svg>